PathFileType	4	(X/Y/Z)	./resultDataOpenSim/trcMotMarkerGrf/sub06/qtm-14-02.trc
DataRate	CameraRate	NumFrames	NumMarkers	Units	OrigDataRate	OrigDataStartFrame	OrigNumFrames
250.000000	250.000000	8	24	m	250.000000	283	565
Frame#	Time	L.Toe.Tip			R.Toe.Tip			L.Ankle.Lat			R.Ankle.Lat			L.Ankle.Med			R.Ankle.Med			L.Heel			R.Heel			L.Knee.Lat			R.Knee.Lat			L.Knee.Med			R.Knee.Med			L.Thigh.Upper			R.Thigh.Upper			L.ASIS			R.ASIS			V.Sacral			L.Acromium			R.Acromium			C7			L.Elbow			R.Elbow			L.Wrist.Lat			R.Wrist.Lat
		X1	Y1	Z1	X2	Y2	Z2	X3	Y3	Z3	X4	Y4	Z4	X5	Y5	Z5	X6	Y6	Z6	X7	Y7	Z7	X8	Y8	Z8	X9	Y9	Z9	X10	Y10	Z10	X11	Y11	Z11	X12	Y12	Z12	X13	Y13	Z13	X14	Y14	Z14	X15	Y15	Z15	X16	Y16	Z16	X17	Y17	Z17	X18	Y18	Z18	X19	Y19	Z19	X20	Y20	Z20	X21	Y21	Z21	X22	Y22	Z22	X23	Y23	Z23	X24	Y24	Z24

283	1.128	0.11726433	-0.039912413	-0.004640187	0.88956635	0.067905066	0.053378789	0.035047834	0.043415392	-0.059797064	0.75035022	0.076084849	0.080881511	0.041407477	0.067119009	0.02322453	0.76919962	0.11266342	-8.7628396e-05	-0.041617211	0.060357538	-0.01784416	0.70456459	0.053754238	0.015262515	0.24784629	0.35653501	-0.090908227	0.68876399	0.4613237	0.13049876	0.24445929	0.36781961	0.033535265	0.67472275	0.45459093	0.0058410663	0.33319443	0.73034257	-0.15455057	0.45771104	0.74396766	0.17811399	0.42965381	0.77775958	-0.13993346	0.51820955	0.79143099	0.095004506	0.30103982	0.85737467	0.041718873	0.48352093	1.2758529	-0.16252727	0.45109354	1.2411331	0.19584226	0.39191468	1.3010948	0.010589911	0.52694116	0.95716612	-0.25700705	0.2551027	0.99909473	0.23980344	0.76527259	0.91777128	-0.18525629	0.24399785	0.77963538	0.33277473
284	1.132	0.11747049	-0.039883384	-0.0047860583	0.89236428	0.062254584	0.051632657	0.037456664	0.045027523	-0.060449319	0.75341493	0.071699206	0.080602547	0.044758849	0.068576419	0.022340531	0.77207704	0.10814337	-0.00036637583	-0.038431853	0.063500811	-0.018210331	0.70712714	0.049487521	0.015622084	0.25488813	0.35548534	-0.092035243	0.69502513	0.45827432	0.12909022	0.25189638	0.36650353	0.032710684	0.68072622	0.45171362	0.0044141102	0.34017464	0.72949615	-0.15446713	0.46682078	0.7433716	0.17732423	0.43701904	0.77685638	-0.14024504	0.5270593	0.79043612	0.093945629	0.30915439	0.85639739	0.042275431	0.49073598	1.2753857	-0.16186301	0.4590452	1.239647	0.1963878	0.39935072	1.300245	0.011647344	0.53435012	0.95675637	-0.25663582	0.2618865	0.99850005	0.24041009	0.77253726	0.91770641	-0.18414768	0.25063023	0.77884412	0.33270495
285	1.136	0.1177467	-0.039840575	-0.0049530917	0.8952792	0.056398517	0.049837972	0.039807525	0.046752692	-0.061052053	0.75658314	0.06698541	0.080479423	0.048308647	0.070044417	0.021391889	0.7748792	0.10335068	-0.00066399802	-0.034990429	0.066735268	-0.018602296	0.70974035	0.045066069	0.016227185	0.26211787	0.35435757	-0.093279236	0.70103512	0.45495198	0.12760865	0.2595796	0.3650491	0.031699	0.68634438	0.44832651	0.0028737553	0.34725902	0.72861847	-0.15435681	0.47599768	0.74272174	0.17646978	0.44447209	0.77594484	-0.14056064	0.53602138	0.7894778	0.092891815	0.31762476	0.85530844	0.042709779	0.49790965	1.2749292	-0.16114318	0.46700739	1.2381899	0.19692986	0.40688993	1.2992615	0.012619147	0.54166933	0.9563755	-0.25621434	0.26872509	0.99778179	0.24081751	0.77971643	0.91758121	-0.18308151	0.2573801	0.77799172	0.33258597
286	1.14	0.1181031	-0.039783308	-0.0051464547	0.8985957	0.050522341	0.048124197	0.042175632	0.048510856	-0.061624319	0.75999187	0.062125613	0.080196442	0.052071944	0.07151174	0.020375103	0.77777174	0.098478788	-0.0015322825	-0.031279739	0.070056182	-0.019031777	0.7122575	0.041071797	0.016722085	0.26954356	0.3531371	-0.094663375	0.70675169	0.45129258	0.12613489	0.26762712	0.36343943	0.030394855	0.69148836	0.44436021	0.0012779484	0.35443834	0.72771604	-0.15424017	0.48526792	0.74200771	0.17556263	0.45200396	0.77502612	-0.14089048	0.54502732	0.78854602	0.091829244	0.32636157	0.85415636	0.043021101	0.50503521	1.2744764	-0.16038088	0.47497521	1.2367652	0.19745439	0.41442614	1.2982209	0.013533812	0.54890242	0.95602648	-0.25582437	0.27573748	0.99699908	0.24114978	0.78681072	0.91739791	-0.18205591	0.26428115	0.77709192	0.33243153
287	1.144	0.11854054	-0.039715639	-0.0053602262	0.9025309	0.045079789	0.046684873	0.044716967	0.050202577	-0.062240655	0.76376739	0.057562224	0.079311813	0.056059186	0.072963948	0.019281098	0.78094349	0.093803698	-0.00359231	-0.02729822	0.073451786	-0.01951002	0.71457278	0.038213813	0.016461616	0.27716816	0.35181621	-0.096210457	0.71213974	0.44718798	0.12478863	0.27602727	0.36166807	0.028773564	0.69606962	0.43974366	-0.0002642531	0.36170597	0.72678796	-0.15410946	0.49467933	0.74122214	0.17463309	0.45962086	0.77409735	-0.14125558	0.55393111	0.78762805	0.090721174	0.33512386	0.85304255	0.043260137	0.51210522	1.2740207	-0.15958649	0.48294474	1.2353774	0.19795516	0.42187327	1.2971822	0.014406194	0.55604104	0.95570279	-0.25551964	0.28302127	0.99619642	0.24148672	0.79381256	0.91715016	-0.18106089	0.27135286	0.77615351	0.33225347
288	1.148	0.11905956	-0.039654413	-0.005580478	0.90684779	0.040736628	0.045596223	0.047539999	0.051791627	-0.062995047	0.76783247	0.053894614	0.077515373	0.060271057	0.074393556	0.018107418	0.78437858	0.089539396	-0.0070135013	-0.023037565	0.076905562	-0.020041063	0.71672484	0.036851142	0.014908595	0.28498283	0.35040248	-0.097934441	0.71726183	0.44261955	0.12360397	0.28467693	0.35973286	0.026894239	0.70006171	0.43443222	-0.0015632394	0.36907353	0.72580747	-0.15389843	0.50425311	0.74033798	0.17371612	0.46732247	0.77314268	-0.14165558	0.56254635	0.78672182	0.089523028	0.34371893	0.8520333	0.043505924	0.51910566	1.2735589	-0.15877141	0.49091239	1.2340294	0.19843083	0.42921637	1.2961519	0.015244238	0.56308114	0.95539692	-0.25528914	0.29055079	0.99539362	0.24184092	0.80071487	0.91683245	-0.18008879	0.27859196	0.77517686	0.33205622
289	1.152	0.11965788	-0.039633819	-0.005799908	0.9106882	0.038011784	0.044625557	0.050683221	0.053307441	-0.06396125	0.77165634	0.051606015	0.074942619	0.064711828	0.075799835	0.016854706	0.78762099	0.085779512	-0.011211997	-0.018460799	0.080404307	-0.020629882	0.71870469	0.036700067	0.012326023	0.29296961	0.34891614	-0.099832724	0.72241132	0.43793279	0.12241373	0.29353073	0.3576048	0.024834514	0.70359696	0.42849777	-0.0023911103	0.37655393	0.72475139	-0.15355208	0.51395351	0.73932494	0.1728544	0.47504595	0.77214063	-0.14200638	0.5707186	0.78583638	0.088207761	0.35204532	0.85114066	0.043852209	0.52601702	1.2730982	-0.15795182	0.49887737	1.2327214	0.19888281	0.43648629	1.295111	0.016068992	0.57002317	0.9551043	-0.2550828	0.29823501	0.99458984	0.24219231	0.8075153	0.91644356	-0.17914019	0.28598933	0.77415908	0.33184211
290	1.156	0.12031763	-0.039698709	-0.0060236584	0.91317138	0.036831127	0.043429216	0.054191413	0.054786584	-0.065161619	0.77439358	0.050860845	0.072225979	0.069419638	0.077182513	0.015506044	0.7899839	0.082671778	-0.015142897	-0.013503537	0.083951938	-0.021294277	0.72030804	0.037098054	0.009780772	0.30111237	0.34738169	-0.10189013	0.72816247	0.43401337	0.1209444	0.30258752	0.35524702	0.02266648	0.70695605	0.42231612	-0.0025856974	0.38413665	0.72362155	-0.15309128	0.52366853	0.73820422	0.17210011	0.48262102	0.77108646	-0.14211883	0.57838823	0.78498777	0.086797843	0.36001269	0.85038655	0.044379321	0.53281982	1.2726618	-0.15714792	0.50684899	1.2314501	0.19931355	0.44371809	1.2940509	0.016896912	0.57686605	0.95481932	-0.25486697	0.30600398	0.99377558	0.24252306	0.81421385	0.91598712	-0.17821825	0.29354166	0.77309888	0.33161312
